<?xml version="1.0" encoding="UTF-8" standalone="no"?>
<!DOCTYPE svg PUBLIC "-//W3C//DTD SVG 1.1//EN"
 "http://www.w3.org/Graphics/SVG/1.1/DTD/svg11.dtd">
<!-- Generated by graphviz version 2.42.4 (0)
 -->
<!-- Title: G Pages: 1 -->
<svg width="104pt" height="197pt"
 viewBox="0.00 0.00 104.00 196.99" xmlns="http://www.w3.org/2000/svg" xmlns:xlink="http://www.w3.org/1999/xlink">
<g id="graph0" class="graph" transform="scale(1 1) rotate(0) translate(4 192.99)">
<title>G</title>
<polygon fill="white" stroke="transparent" points="-4,4 -4,-192.99 100,-192.99 100,4 -4,4"/>
<!-- 0x61698633d2e0 -->
<g id="node1" class="node">
<title>0x61698633d2e0</title>
<ellipse fill="lightgray" stroke="black" cx="47.5" cy="-169.49" rx="19.5" ry="19.5"/>
<text text-anchor="middle" x="47.5" y="-165.79" font-family="Times,serif" font-size="14.00">20</text>
</g>
<!-- 0x61698633d2b0 -->
<g id="node2" class="node">
<title>0x61698633d2b0</title>
<ellipse fill="lightgray" stroke="black" cx="19.5" cy="-94.49" rx="19.5" ry="19.5"/>
<text text-anchor="middle" x="19.5" y="-90.79" font-family="Times,serif" font-size="14.00">10</text>
</g>
<!-- 0x61698633d2e0&#45;&gt;0x61698633d2b0 -->
<g id="edge1" class="edge">
<title>0x61698633d2e0&#45;&gt;0x61698633d2b0</title>
<path fill="none" stroke="black" d="M40.72,-150.82C37.45,-142.3 33.46,-131.9 29.83,-122.42"/>
<polygon fill="black" stroke="black" points="33.06,-121.09 26.21,-113 26.53,-123.59 33.06,-121.09"/>
</g>
<!-- 0x61698633d310 -->
<g id="node3" class="node">
<title>0x61698633d310</title>
<ellipse fill="lightgray" stroke="black" cx="76.5" cy="-94.49" rx="19.5" ry="19.5"/>
<text text-anchor="middle" x="76.5" y="-90.79" font-family="Times,serif" font-size="14.00">30</text>
</g>
<!-- 0x61698633d2e0&#45;&gt;0x61698633d310 -->
<g id="edge2" class="edge">
<title>0x61698633d2e0&#45;&gt;0x61698633d310</title>
<path fill="none" stroke="black" d="M54.37,-151.19C57.78,-142.62 61.97,-132.07 65.78,-122.47"/>
<polygon fill="black" stroke="black" points="69.14,-123.51 69.57,-112.92 62.63,-120.92 69.14,-123.51"/>
</g>
<!-- 0x61698633f530 -->
<g id="node4" class="node">
<title>0x61698633f530</title>
<ellipse fill="lightcoral" stroke="black" cx="76.5" cy="-19.5" rx="19.5" ry="19.5"/>
<text text-anchor="middle" x="76.5" y="-15.8" font-family="Times,serif" font-size="14.00" fill="white">45</text>
</g>
<!-- 0x61698633d310&#45;&gt;0x61698633f530 -->
<g id="edge3" class="edge">
<title>0x61698633d310&#45;&gt;0x61698633f530</title>
<path fill="none" stroke="black" d="M76.5,-74.7C76.5,-66.95 76.5,-57.8 76.5,-49.24"/>
<polygon fill="black" stroke="black" points="80,-49.23 76.5,-39.23 73,-49.23 80,-49.23"/>
</g>
</g>
</svg>
