<?xml version="1.0" encoding="UTF-8" standalone="no"?>
<!DOCTYPE svg PUBLIC "-//W3C//DTD SVG 1.1//EN"
 "http://www.w3.org/Graphics/SVG/1.1/DTD/svg11.dtd">
<!-- Generated by graphviz version 2.42.4 (0)
 -->
<!-- Title: G Pages: 1 -->
<svg width="104pt" height="122pt"
 viewBox="0.00 0.00 104.00 121.99" xmlns="http://www.w3.org/2000/svg" xmlns:xlink="http://www.w3.org/1999/xlink">
<g id="graph0" class="graph" transform="scale(1 1) rotate(0) translate(4 117.99)">
<title>G</title>
<polygon fill="white" stroke="transparent" points="-4,4 -4,-117.99 100,-117.99 100,4 -4,4"/>
<!-- 0x61698633d2e0 -->
<g id="node1" class="node">
<title>0x61698633d2e0</title>
<ellipse fill="lightgray" stroke="black" cx="47.5" cy="-94.49" rx="19.5" ry="19.5"/>
<text text-anchor="middle" x="47.5" y="-90.79" font-family="Times,serif" font-size="14.00">20</text>
</g>
<!-- 0x61698633d2b0 -->
<g id="node2" class="node">
<title>0x61698633d2b0</title>
<ellipse fill="lightcoral" stroke="black" cx="19.5" cy="-19.5" rx="19.5" ry="19.5"/>
<text text-anchor="middle" x="19.5" y="-15.8" font-family="Times,serif" font-size="14.00" fill="white">10</text>
</g>
<!-- 0x61698633d2e0&#45;&gt;0x61698633d2b0 -->
<g id="edge1" class="edge">
<title>0x61698633d2e0&#45;&gt;0x61698633d2b0</title>
<path fill="none" stroke="black" d="M40.72,-75.82C37.45,-67.31 33.46,-56.9 29.83,-47.43"/>
<polygon fill="black" stroke="black" points="33.06,-46.09 26.21,-38.01 26.53,-48.6 33.06,-46.09"/>
</g>
<!-- 0x61698633d310 -->
<g id="node3" class="node">
<title>0x61698633d310</title>
<ellipse fill="lightcoral" stroke="black" cx="76.5" cy="-19.5" rx="19.5" ry="19.5"/>
<text text-anchor="middle" x="76.5" y="-15.8" font-family="Times,serif" font-size="14.00" fill="white">30</text>
</g>
<!-- 0x61698633d2e0&#45;&gt;0x61698633d310 -->
<g id="edge2" class="edge">
<title>0x61698633d2e0&#45;&gt;0x61698633d310</title>
<path fill="none" stroke="black" d="M54.37,-76.2C57.78,-67.62 61.97,-57.07 65.78,-47.47"/>
<polygon fill="black" stroke="black" points="69.14,-48.51 69.57,-37.93 62.63,-45.93 69.14,-48.51"/>
</g>
</g>
</svg>
