<?xml version="1.0" encoding="UTF-8" standalone="no"?>
<!DOCTYPE svg PUBLIC "-//W3C//DTD SVG 1.1//EN"
 "http://www.w3.org/Graphics/SVG/1.1/DTD/svg11.dtd">
<!-- Generated by graphviz version 2.42.4 (0)
 -->
<!-- Title: G Pages: 1 -->
<svg width="295pt" height="400pt"
 viewBox="0.00 0.00 295.50 400.28" xmlns="http://www.w3.org/2000/svg" xmlns:xlink="http://www.w3.org/1999/xlink">
<g id="graph0" class="graph" transform="scale(1 1) rotate(0) translate(4 396.28)">
<title>G</title>
<polygon fill="white" stroke="transparent" points="-4,4 -4,-396.28 291.5,-396.28 291.5,4 -4,4"/>
<!-- 0x61698633d2e0 -->
<g id="node1" class="node">
<title>0x61698633d2e0</title>
<ellipse fill="lightgray" stroke="black" cx="101" cy="-372.78" rx="19.5" ry="19.5"/>
<text text-anchor="middle" x="101" y="-369.08" font-family="Times,serif" font-size="14.00">20</text>
</g>
<!-- 0x61698633d2b0 -->
<g id="node2" class="node">
<title>0x61698633d2b0</title>
<ellipse fill="lightgray" stroke="black" cx="73" cy="-297.78" rx="19.5" ry="19.5"/>
<text text-anchor="middle" x="73" y="-294.08" font-family="Times,serif" font-size="14.00">10</text>
</g>
<!-- 0x61698633d2e0&#45;&gt;0x61698633d2b0 -->
<g id="edge1" class="edge">
<title>0x61698633d2e0&#45;&gt;0x61698633d2b0</title>
<path fill="none" stroke="black" d="M94.22,-354.11C90.95,-345.59 86.96,-335.19 83.33,-325.71"/>
<polygon fill="black" stroke="black" points="86.56,-324.37 79.72,-316.29 80.03,-326.88 86.56,-324.37"/>
</g>
<!-- 0x61698633d980 -->
<g id="node6" class="node">
<title>0x61698633d980</title>
<ellipse fill="lightgray" stroke="black" cx="130" cy="-297.78" rx="19.5" ry="19.5"/>
<text text-anchor="middle" x="130" y="-294.08" font-family="Times,serif" font-size="14.00">40</text>
</g>
<!-- 0x61698633d2e0&#45;&gt;0x61698633d980 -->
<g id="edge5" class="edge">
<title>0x61698633d2e0&#45;&gt;0x61698633d980</title>
<path fill="none" stroke="black" d="M107.87,-354.48C111.28,-345.91 115.47,-335.36 119.29,-325.75"/>
<polygon fill="black" stroke="black" points="122.64,-326.8 123.08,-316.21 116.13,-324.21 122.64,-326.8"/>
</g>
<!-- 0x61698633f560 -->
<g id="node3" class="node">
<title>0x61698633f560</title>
<ellipse fill="lightgray" stroke="black" cx="18" cy="-218.24" rx="18" ry="18"/>
<text text-anchor="middle" x="18" y="-214.54" font-family="Times,serif" font-size="14.00">8</text>
</g>
<!-- 0x61698633d2b0&#45;&gt;0x61698633f560 -->
<g id="edge2" class="edge">
<title>0x61698633d2b0&#45;&gt;0x61698633f560</title>
<path fill="none" stroke="black" d="M62.13,-281.46C54.1,-270.13 43.02,-254.52 33.98,-241.76"/>
<polygon fill="black" stroke="black" points="36.74,-239.61 28.1,-233.48 31.03,-243.66 36.74,-239.61"/>
</g>
<!-- 0x61698633d9e0 -->
<g id="node4" class="node">
<title>0x61698633d9e0</title>
<ellipse fill="lightgray" stroke="black" cx="73" cy="-218.24" rx="19.5" ry="19.5"/>
<text text-anchor="middle" x="73" y="-214.54" font-family="Times,serif" font-size="14.00">12</text>
</g>
<!-- 0x61698633d2b0&#45;&gt;0x61698633d9e0 -->
<g id="edge3" class="edge">
<title>0x61698633d2b0&#45;&gt;0x61698633d9e0</title>
<path fill="none" stroke="black" d="M73,-278.01C73,-268.96 73,-257.91 73,-247.85"/>
<polygon fill="black" stroke="black" points="76.5,-247.84 73,-237.84 69.5,-247.84 76.5,-247.84"/>
</g>
<!-- 0x61698633da10 -->
<g id="node5" class="node">
<title>0x61698633da10</title>
<ellipse fill="lightcoral" stroke="black" cx="73" cy="-129.59" rx="19.5" ry="19.5"/>
<text text-anchor="middle" x="73" y="-125.89" font-family="Times,serif" font-size="14.00" fill="white">15</text>
</g>
<!-- 0x61698633d9e0&#45;&gt;0x61698633da10 -->
<g id="edge4" class="edge">
<title>0x61698633d9e0&#45;&gt;0x61698633da10</title>
<path fill="none" stroke="black" d="M73,-198.44C73,-187.08 73,-172.38 73,-159.56"/>
<polygon fill="black" stroke="black" points="76.5,-159.36 73,-149.36 69.5,-159.36 76.5,-159.36"/>
</g>
<!-- 0x61698633d310 -->
<g id="node7" class="node">
<title>0x61698633d310</title>
<ellipse fill="lightgray" stroke="black" cx="130" cy="-218.24" rx="19.5" ry="19.5"/>
<text text-anchor="middle" x="130" y="-214.54" font-family="Times,serif" font-size="14.00">30</text>
</g>
<!-- 0x61698633d980&#45;&gt;0x61698633d310 -->
<g id="edge6" class="edge">
<title>0x61698633d980&#45;&gt;0x61698633d310</title>
<path fill="none" stroke="black" d="M130,-278.01C130,-268.96 130,-257.91 130,-247.85"/>
<polygon fill="black" stroke="black" points="133.5,-247.84 130,-237.84 126.5,-247.84 133.5,-247.84"/>
</g>
<!-- 0x61698633d9b0 -->
<g id="node9" class="node">
<title>0x61698633d9b0</title>
<ellipse fill="lightcoral" stroke="black" cx="192" cy="-218.24" rx="24.1" ry="24.1"/>
<text text-anchor="middle" x="192" y="-214.54" font-family="Times,serif" font-size="14.00" fill="white">100</text>
</g>
<!-- 0x61698633d980&#45;&gt;0x61698633d9b0 -->
<g id="edge8" class="edge">
<title>0x61698633d980&#45;&gt;0x61698633d9b0</title>
<path fill="none" stroke="black" d="M141.95,-281.83C150.19,-271.53 161.35,-257.57 171.04,-245.45"/>
<polygon fill="black" stroke="black" points="173.95,-247.41 177.46,-237.42 168.49,-243.04 173.95,-247.41"/>
</g>
<!-- 0x61698633da40 -->
<g id="node8" class="node">
<title>0x61698633da40</title>
<ellipse fill="lightcoral" stroke="black" cx="130" cy="-129.59" rx="19.5" ry="19.5"/>
<text text-anchor="middle" x="130" y="-125.89" font-family="Times,serif" font-size="14.00" fill="white">25</text>
</g>
<!-- 0x61698633d310&#45;&gt;0x61698633da40 -->
<g id="edge7" class="edge">
<title>0x61698633d310&#45;&gt;0x61698633da40</title>
<path fill="none" stroke="black" d="M130,-198.44C130,-187.08 130,-172.38 130,-159.56"/>
<polygon fill="black" stroke="black" points="133.5,-159.36 130,-149.36 126.5,-159.36 133.5,-159.36"/>
</g>
<!-- 0x61698633f530 -->
<g id="node10" class="node">
<title>0x61698633f530</title>
<ellipse fill="lightgray" stroke="black" cx="189" cy="-129.59" rx="19.5" ry="19.5"/>
<text text-anchor="middle" x="189" y="-125.89" font-family="Times,serif" font-size="14.00">45</text>
</g>
<!-- 0x61698633d9b0&#45;&gt;0x61698633f530 -->
<g id="edge9" class="edge">
<title>0x61698633d9b0&#45;&gt;0x61698633f530</title>
<path fill="none" stroke="black" d="M191.2,-194.02C190.83,-183.38 190.39,-170.67 190,-159.42"/>
<polygon fill="black" stroke="black" points="193.49,-159.09 189.64,-149.21 186.49,-159.33 193.49,-159.09"/>
</g>
<!-- 0x61698633da70 -->
<g id="node11" class="node">
<title>0x61698633da70</title>
<ellipse fill="lightgray" stroke="black" cx="255" cy="-129.59" rx="28.7" ry="28.7"/>
<text text-anchor="middle" x="255" y="-125.89" font-family="Times,serif" font-size="14.00">1000</text>
</g>
<!-- 0x61698633d9b0&#45;&gt;0x61698633da70 -->
<g id="edge10" class="edge">
<title>0x61698633d9b0&#45;&gt;0x61698633da70</title>
<path fill="none" stroke="black" d="M205.67,-198.44C213.49,-187.68 223.5,-173.92 232.45,-161.6"/>
<polygon fill="black" stroke="black" points="235.4,-163.5 238.45,-153.36 229.73,-159.39 235.4,-163.5"/>
</g>
<!-- 0x61698633daa0 -->
<g id="node12" class="node">
<title>0x61698633daa0</title>
<ellipse fill="lightcoral" stroke="black" cx="255" cy="-32.5" rx="32.49" ry="32.49"/>
<text text-anchor="middle" x="255" y="-28.8" font-family="Times,serif" font-size="14.00" fill="white">10000</text>
</g>
<!-- 0x61698633da70&#45;&gt;0x61698633daa0 -->
<g id="edge11" class="edge">
<title>0x61698633da70&#45;&gt;0x61698633daa0</title>
<path fill="none" stroke="black" d="M255,-100.83C255,-92.79 255,-83.84 255,-75.15"/>
<polygon fill="black" stroke="black" points="258.5,-75.14 255,-65.14 251.5,-75.14 258.5,-75.14"/>
</g>
</g>
</svg>
