<?xml version="1.0" encoding="UTF-8" standalone="no"?>
<!DOCTYPE svg PUBLIC "-//W3C//DTD SVG 1.1//EN"
 "http://www.w3.org/Graphics/SVG/1.1/DTD/svg11.dtd">
<!-- Generated by graphviz version 2.42.4 (0)
 -->
<!-- Title: G Pages: 1 -->
<svg width="132pt" height="197pt"
 viewBox="0.00 0.00 132.00 196.99" xmlns="http://www.w3.org/2000/svg" xmlns:xlink="http://www.w3.org/1999/xlink">
<g id="graph0" class="graph" transform="scale(1 1) rotate(0) translate(4 192.99)">
<title>G</title>
<polygon fill="white" stroke="transparent" points="-4,4 -4,-192.99 128,-192.99 128,4 -4,4"/>
<!-- 0x603013c2f6c0 -->
<g id="node1" class="node">
<title>0x603013c2f6c0</title>
<ellipse fill="lightgray" stroke="black" cx="75.5" cy="-169.49" rx="19.5" ry="19.5"/>
<text text-anchor="middle" x="75.5" y="-165.79" font-family="Times,serif" font-size="14.00">50</text>
</g>
<!-- 0x603013c2f6f0 -->
<g id="node2" class="node">
<title>0x603013c2f6f0</title>
<ellipse fill="lightgray" stroke="black" cx="47.5" cy="-94.49" rx="19.5" ry="19.5"/>
<text text-anchor="middle" x="47.5" y="-90.79" font-family="Times,serif" font-size="14.00">30</text>
</g>
<!-- 0x603013c2f6c0&#45;&gt;0x603013c2f6f0 -->
<g id="edge1" class="edge">
<title>0x603013c2f6c0&#45;&gt;0x603013c2f6f0</title>
<path fill="none" stroke="black" d="M68.72,-150.82C65.45,-142.3 61.46,-131.9 57.83,-122.42"/>
<polygon fill="black" stroke="black" points="61.06,-121.09 54.21,-113 54.53,-123.59 61.06,-121.09"/>
</g>
<!-- 0x603013c2f720 -->
<g id="node5" class="node">
<title>0x603013c2f720</title>
<ellipse fill="lightgray" stroke="black" cx="104.5" cy="-94.49" rx="19.5" ry="19.5"/>
<text text-anchor="middle" x="104.5" y="-90.79" font-family="Times,serif" font-size="14.00">70</text>
</g>
<!-- 0x603013c2f6c0&#45;&gt;0x603013c2f720 -->
<g id="edge4" class="edge">
<title>0x603013c2f6c0&#45;&gt;0x603013c2f720</title>
<path fill="none" stroke="black" d="M82.37,-151.19C85.78,-142.62 89.97,-132.07 93.78,-122.47"/>
<polygon fill="black" stroke="black" points="97.14,-123.51 97.57,-112.92 90.63,-120.92 97.14,-123.51"/>
</g>
<!-- 0x603013c31940 -->
<g id="node3" class="node">
<title>0x603013c31940</title>
<ellipse fill="lightcoral" stroke="black" cx="19.5" cy="-19.5" rx="19.5" ry="19.5"/>
<text text-anchor="middle" x="19.5" y="-15.8" font-family="Times,serif" font-size="14.00" fill="white">20</text>
</g>
<!-- 0x603013c2f6f0&#45;&gt;0x603013c31940 -->
<g id="edge2" class="edge">
<title>0x603013c2f6f0&#45;&gt;0x603013c31940</title>
<path fill="none" stroke="black" d="M40.72,-75.82C37.45,-67.31 33.46,-56.9 29.83,-47.43"/>
<polygon fill="black" stroke="black" points="33.06,-46.09 26.21,-38.01 26.53,-48.6 33.06,-46.09"/>
</g>
<!-- 0x603013c31970 -->
<g id="node4" class="node">
<title>0x603013c31970</title>
<ellipse fill="lightcoral" stroke="black" cx="76.5" cy="-19.5" rx="19.5" ry="19.5"/>
<text text-anchor="middle" x="76.5" y="-15.8" font-family="Times,serif" font-size="14.00" fill="white">40</text>
</g>
<!-- 0x603013c2f6f0&#45;&gt;0x603013c31970 -->
<g id="edge3" class="edge">
<title>0x603013c2f6f0&#45;&gt;0x603013c31970</title>
<path fill="none" stroke="black" d="M54.37,-76.2C57.78,-67.62 61.97,-57.07 65.78,-47.47"/>
<polygon fill="black" stroke="black" points="69.14,-48.51 69.57,-37.93 62.63,-45.93 69.14,-48.51"/>
</g>
</g>
</svg>
