<?xml version="1.0" encoding="UTF-8" standalone="no"?>
<!DOCTYPE svg PUBLIC "-//W3C//DTD SVG 1.1//EN"
 "http://www.w3.org/Graphics/SVG/1.1/DTD/svg11.dtd">
<!-- Generated by graphviz version 2.42.4 (0)
 -->
<!-- Title: G Pages: 1 -->
<svg width="157pt" height="272pt"
 viewBox="0.00 0.00 157.50 271.99" xmlns="http://www.w3.org/2000/svg" xmlns:xlink="http://www.w3.org/1999/xlink">
<g id="graph0" class="graph" transform="scale(1 1) rotate(0) translate(4 267.99)">
<title>G</title>
<polygon fill="white" stroke="transparent" points="-4,4 -4,-267.99 153.5,-267.99 153.5,4 -4,4"/>
<!-- 0x647b8d40c6c0 -->
<g id="node1" class="node">
<title>0x647b8d40c6c0</title>
<ellipse fill="lightgray" stroke="black" cx="101" cy="-244.49" rx="19.5" ry="19.5"/>
<text text-anchor="middle" x="101" y="-240.79" font-family="Times,serif" font-size="14.00">50</text>
</g>
<!-- 0x647b8d40e970 -->
<g id="node2" class="node">
<title>0x647b8d40e970</title>
<ellipse fill="lightgray" stroke="black" cx="73" cy="-169.49" rx="19.5" ry="19.5"/>
<text text-anchor="middle" x="73" y="-165.79" font-family="Times,serif" font-size="14.00">40</text>
</g>
<!-- 0x647b8d40c6c0&#45;&gt;0x647b8d40e970 -->
<g id="edge1" class="edge">
<title>0x647b8d40c6c0&#45;&gt;0x647b8d40e970</title>
<path fill="none" stroke="black" d="M94.22,-225.82C90.95,-217.3 86.96,-206.9 83.33,-197.42"/>
<polygon fill="black" stroke="black" points="86.56,-196.08 79.72,-188 80.03,-198.59 86.56,-196.08"/>
</g>
<!-- 0x647b8d40c720 -->
<g id="node7" class="node">
<title>0x647b8d40c720</title>
<ellipse fill="lightgray" stroke="black" cx="130" cy="-169.49" rx="19.5" ry="19.5"/>
<text text-anchor="middle" x="130" y="-165.79" font-family="Times,serif" font-size="14.00">70</text>
</g>
<!-- 0x647b8d40c6c0&#45;&gt;0x647b8d40c720 -->
<g id="edge6" class="edge">
<title>0x647b8d40c6c0&#45;&gt;0x647b8d40c720</title>
<path fill="none" stroke="black" d="M107.87,-226.19C111.28,-217.62 115.47,-207.07 119.29,-197.46"/>
<polygon fill="black" stroke="black" points="122.64,-198.51 123.08,-187.92 116.13,-195.92 122.64,-198.51"/>
</g>
<!-- 0x647b8d40c9b0 -->
<g id="node3" class="node">
<title>0x647b8d40c9b0</title>
<ellipse fill="lightgray" stroke="black" cx="45" cy="-94.49" rx="19.5" ry="19.5"/>
<text text-anchor="middle" x="45" y="-90.79" font-family="Times,serif" font-size="14.00">10</text>
</g>
<!-- 0x647b8d40e970&#45;&gt;0x647b8d40c9b0 -->
<g id="edge2" class="edge">
<title>0x647b8d40e970&#45;&gt;0x647b8d40c9b0</title>
<path fill="none" stroke="black" d="M66.22,-150.82C62.95,-142.3 58.96,-131.9 55.33,-122.42"/>
<polygon fill="black" stroke="black" points="58.56,-121.09 51.72,-113 52.03,-123.59 58.56,-121.09"/>
</g>
<!-- 0x647b8d40c980 -->
<g id="node6" class="node">
<title>0x647b8d40c980</title>
<ellipse fill="lightcoral" stroke="black" cx="102" cy="-94.49" rx="19.5" ry="19.5"/>
<text text-anchor="middle" x="102" y="-90.79" font-family="Times,serif" font-size="14.00" fill="white">45</text>
</g>
<!-- 0x647b8d40e970&#45;&gt;0x647b8d40c980 -->
<g id="edge5" class="edge">
<title>0x647b8d40e970&#45;&gt;0x647b8d40c980</title>
<path fill="none" stroke="black" d="M79.87,-151.19C83.28,-142.62 87.47,-132.07 91.29,-122.47"/>
<polygon fill="black" stroke="black" points="94.64,-123.51 95.08,-112.92 88.13,-120.92 94.64,-123.51"/>
</g>
<!-- 0x647b8d40c9e0 -->
<g id="node4" class="node">
<title>0x647b8d40c9e0</title>
<ellipse fill="lightcoral" stroke="black" cx="18" cy="-19.5" rx="18" ry="18"/>
<text text-anchor="middle" x="18" y="-15.8" font-family="Times,serif" font-size="14.00" fill="white">5</text>
</g>
<!-- 0x647b8d40c9b0&#45;&gt;0x647b8d40c9e0 -->
<g id="edge3" class="edge">
<title>0x647b8d40c9b0&#45;&gt;0x647b8d40c9e0</title>
<path fill="none" stroke="black" d="M38.46,-75.82C35.17,-66.93 31.13,-55.98 27.5,-46.18"/>
<polygon fill="black" stroke="black" points="30.67,-44.68 23.92,-36.51 24.11,-47.11 30.67,-44.68"/>
</g>
<!-- 0x647b8d40e940 -->
<g id="node5" class="node">
<title>0x647b8d40e940</title>
<ellipse fill="lightcoral" stroke="black" cx="73" cy="-19.5" rx="19.5" ry="19.5"/>
<text text-anchor="middle" x="73" y="-15.8" font-family="Times,serif" font-size="14.00" fill="white">20</text>
</g>
<!-- 0x647b8d40c9b0&#45;&gt;0x647b8d40e940 -->
<g id="edge4" class="edge">
<title>0x647b8d40c9b0&#45;&gt;0x647b8d40e940</title>
<path fill="none" stroke="black" d="M51.78,-75.82C55.05,-67.31 59.04,-56.9 62.67,-47.43"/>
<polygon fill="black" stroke="black" points="65.97,-48.6 66.28,-38.01 59.44,-46.09 65.97,-48.6"/>
</g>
</g>
</svg>
